<svg width="179" height="40" viewBox="0 0 179 40" fill="none" xmlns="http://www.w3.org/2000/svg">
<g clip-path="url(#clip0_1191_514)">
<path d="M68.8019 33.3706C67.8655 33.3706 67.0041 33.2207 66.2551 32.9211C65.506 32.6215 64.9442 32.1721 64.5322 31.6103C64.1202 31.0485 63.8955 30.3368 63.8955 29.5129C63.8955 28.5765 64.1577 27.8275 64.6446 27.2657C65.1689 26.6664 65.8431 26.2544 66.667 25.9174C67.491 25.6177 68.4273 25.393 69.4011 25.3181C70.8243 25.1683 71.8356 25.0559 72.3599 24.9436C72.9217 24.8312 73.1839 24.644 73.1839 24.3443C73.1839 24.3443 73.1839 24.3443 73.1839 24.3069C73.1839 23.82 72.9592 23.4455 72.4723 23.1458C72.0228 22.8837 71.3487 22.7338 70.5247 22.7338C69.6633 22.7338 68.9891 22.8837 68.5022 23.2207C68.0528 23.5204 67.7906 24.0073 67.7906 24.6814H64.0453C64.0453 23.6327 64.3449 22.7338 64.9067 22.0222C65.4685 21.3106 66.2551 20.7488 67.2288 20.3743C68.2026 19.9998 69.2888 19.8125 70.5247 19.8125C71.6858 19.8125 72.7345 19.9998 73.7082 20.3368C74.682 20.6739 75.4685 21.1983 76.0678 21.9099C76.667 22.6215 76.9667 23.4829 76.9667 24.5691C76.9667 24.7563 76.9667 24.9061 76.9667 25.0934C76.9667 25.2432 76.9667 25.4305 76.9667 25.6177V30.2245C76.9667 30.5616 76.9667 30.8986 77.0041 31.1983C77.0416 31.4979 77.079 31.7975 77.1539 32.0222C77.2288 32.3219 77.3412 32.5466 77.4536 32.7339C77.5659 32.9211 77.6783 33.0709 77.7532 33.1458H74.0079C73.933 33.0709 73.8581 32.9586 73.7457 32.7713C73.6333 32.584 73.521 32.3968 73.4461 32.1346C73.3337 31.835 73.2588 31.5728 73.2213 31.2732C73.1839 30.9735 73.1464 30.6365 73.1464 30.2619L73.933 30.7863C73.7082 31.3106 73.3337 31.7975 72.8094 32.1721C72.285 32.5466 71.6858 32.8462 70.9742 33.0709C70.3749 33.2582 69.6258 33.3706 68.8019 33.3706ZM69.8131 30.5241C70.4124 30.5241 70.9742 30.4118 71.4985 30.187C72.0228 29.9623 72.4348 29.6252 72.7719 29.1758C73.109 28.7264 73.2588 28.0897 73.2588 27.3406V26.0297L74.1951 26.9661C73.6708 27.1533 73.0341 27.3406 72.3225 27.453C71.6109 27.5653 70.8992 27.6777 70.1876 27.7526C69.3637 27.8275 68.727 27.9773 68.315 28.1646C67.903 28.3518 67.6783 28.6889 67.6783 29.1758C67.6783 29.6252 67.8655 29.9623 68.2026 30.187C68.6146 30.4118 69.1389 30.5241 69.8131 30.5241Z" fill="white"/>
<path d="M85.4313 33.3335C84.495 33.3335 83.7459 33.1837 83.1467 32.884C82.5474 32.5844 82.0605 32.1724 81.7234 31.6855C81.3864 31.1612 81.1242 30.5994 81.0118 30.0001C80.862 29.3634 80.7871 28.7642 80.7871 28.09C80.7871 27.7904 80.7871 27.4908 80.7871 27.1537C80.7871 26.8166 80.7871 26.4795 80.7871 26.1425V20.0376H84.6073V25.5432C84.6073 25.8054 84.6073 26.105 84.6073 26.3672C84.6073 26.6294 84.6073 26.8541 84.6073 27.0788C84.6073 27.6406 84.6822 28.1275 84.7946 28.5769C84.907 29.0264 85.1317 29.4009 85.4688 29.7005C85.8058 29.9627 86.2927 30.1125 86.892 30.1125C87.4912 30.1125 88.0156 29.9252 88.4276 29.5882C88.8395 29.2511 89.1766 28.8016 89.4013 28.2773C89.6261 27.753 89.7384 27.1912 89.7384 26.6294L90.8246 27.4908C90.8246 28.3148 90.7122 29.0638 90.45 29.7754C90.1879 30.487 89.8508 31.0863 89.4013 31.6106C88.9519 32.135 88.3901 32.547 87.716 32.8466C87.0043 33.1837 86.2553 33.3335 85.4313 33.3335ZM89.701 33.1088V20.0376H93.5212V33.0713H89.701V33.1088Z" fill="white"/>
<path d="M103.784 33.3709C103.297 33.3709 102.772 33.3335 102.248 33.2586C101.724 33.1837 101.237 32.9964 100.787 32.7342C100.338 32.472 99.9634 32.0975 99.7012 31.6106C99.439 31.1237 99.2892 30.4496 99.2892 29.6256C99.2892 29.4383 99.2892 29.2511 99.2892 29.0638C99.2892 28.8765 99.2892 28.6893 99.2892 28.502V22.9964H96.293V20.0376H97.1544C97.6413 20.0376 98.0533 20.0001 98.3154 19.9627C98.5776 19.9252 98.8398 19.8129 98.9521 19.6631C99.102 19.5132 99.1769 19.2136 99.2143 18.8765C99.2518 18.502 99.2892 18.0151 99.2892 17.3784V15.7305H103.109V20.0376H106.892V22.9964H103.109V27.678C103.109 27.8278 103.109 27.9777 103.109 28.09C103.109 28.2398 103.109 28.3522 103.109 28.502C103.109 29.0638 103.184 29.5132 103.297 29.8878C103.447 30.2249 103.784 30.4121 104.308 30.4121C104.57 30.4121 104.832 30.3747 105.094 30.3372C105.319 30.2998 105.506 30.2249 105.656 30.1874V33.0338C105.469 33.1087 105.244 33.1837 104.945 33.2211C104.57 33.3335 104.196 33.3709 103.784 33.3709Z" fill="white"/>
<path d="M110.075 33.1085V13.895H113.895V33.1085H110.075ZM119.289 33.1085V28.4643C119.289 28.3145 119.289 28.0898 119.289 27.7902C119.289 27.4905 119.289 27.2284 119.289 26.9287C119.289 26.6291 119.289 26.4044 119.289 26.2171C119.289 25.2059 119.101 24.4568 118.764 23.895C118.39 23.3332 117.753 23.0711 116.779 23.0711C116.143 23.0711 115.618 23.1834 115.206 23.4456C114.794 23.7078 114.457 24.0448 114.232 24.4943C114.008 24.9437 113.895 25.4681 113.895 26.0673L112.772 25.3182C112.772 24.2321 112.997 23.2583 113.483 22.4343C113.933 21.6104 114.607 20.9737 115.431 20.4868C116.255 20.0373 117.191 19.7752 118.277 19.7752C119.888 19.7752 121.086 20.2621 121.873 21.1984C122.659 22.1347 123.071 23.4456 123.071 25.131C123.071 25.543 123.071 26.0673 123.071 26.6666C123.071 27.2658 123.071 27.94 123.071 28.7265V33.0711H119.289V33.1085Z" fill="white"/>
<path d="M133.184 33.3709C132.697 33.3709 132.173 33.3335 131.648 33.2586C131.124 33.1837 130.637 32.9964 130.188 32.7342C129.738 32.472 129.364 32.0975 129.102 31.6106C128.839 31.1237 128.69 30.4496 128.69 29.6256C128.69 29.4383 128.69 29.2511 128.69 29.0638C128.69 28.8765 128.69 28.6893 128.69 28.502V22.9964H125.693V20.0376H126.555C127.042 20.0376 127.454 20.0001 127.716 19.9627C127.978 19.9252 128.24 19.8129 128.353 19.6631C128.502 19.5132 128.577 19.2136 128.615 18.8765C128.652 18.502 128.69 18.0151 128.69 17.3784V15.7305H132.51V20.0376H136.293V22.9964H132.51V27.678C132.51 27.8278 132.51 27.9777 132.51 28.09C132.51 28.2398 132.51 28.3522 132.51 28.502C132.51 29.0638 132.585 29.5132 132.697 29.8878C132.847 30.2249 133.184 30.4121 133.708 30.4121C133.97 30.4121 134.233 30.3747 134.495 30.3372C134.72 30.2998 134.907 30.2249 135.057 30.1874V33.0338C134.869 33.1087 134.645 33.1837 134.345 33.2211C133.971 33.3335 133.633 33.3709 133.184 33.3709Z" fill="white"/>
<path d="M139.514 33.1087V20.0376H143.334V24.5319L142.547 24.0451C142.622 23.4458 142.81 22.8466 143.034 22.3597C143.259 21.8353 143.596 21.3859 143.971 21.0113C144.345 20.6368 144.795 20.3372 145.319 20.1125C145.843 19.8878 146.443 19.7754 147.117 19.7754C147.641 19.7754 148.053 19.8128 148.353 19.8877C148.652 19.9627 148.84 20.0376 148.914 20.075L148.278 23.4833C148.203 23.4458 148.053 23.3709 147.791 23.296C147.529 23.2211 147.192 23.1462 146.817 23.1462C146.143 23.1462 145.619 23.2585 145.169 23.4833C144.72 23.708 144.383 24.0076 144.12 24.3447C143.858 24.7192 143.671 25.0937 143.559 25.5432C143.446 25.9926 143.371 26.4421 143.371 26.8915V33.0338H139.514V33.1087Z" fill="white"/>
<path d="M155.131 33.3706C154.195 33.3706 153.333 33.2207 152.584 32.9211C151.835 32.6215 151.273 32.1721 150.861 31.6103C150.449 31.0485 150.225 30.3368 150.225 29.5129C150.225 28.5765 150.487 27.8275 150.974 27.2657C151.498 26.6664 152.172 26.2544 152.996 25.9174C153.82 25.6177 154.756 25.393 155.73 25.3181C157.153 25.1683 158.165 25.0559 158.689 24.9436C159.251 24.8312 159.513 24.644 159.513 24.3443C159.513 24.3443 159.513 24.3443 159.513 24.3069C159.513 23.82 159.288 23.4455 158.801 23.1458C158.352 22.8837 157.678 22.7338 156.854 22.7338C155.992 22.7338 155.318 22.8837 154.831 23.2207C154.382 23.5204 154.12 24.0073 154.12 24.6814H150.374C150.374 23.6327 150.674 22.7338 151.236 22.0222C151.798 21.3106 152.584 20.7488 153.558 20.3743C154.532 19.9998 155.618 19.8125 156.854 19.8125C158.015 19.8125 159.064 19.9998 160.037 20.3368C161.011 20.6739 161.798 21.1983 162.397 21.9099C162.996 22.6215 163.296 23.4829 163.296 24.5691C163.296 24.7563 163.296 24.9061 163.296 25.0934C163.296 25.2432 163.296 25.4305 163.296 25.6177V30.2245C163.296 30.5616 163.296 30.8986 163.333 31.1983C163.371 31.4979 163.408 31.7975 163.483 32.0222C163.558 32.3219 163.67 32.5466 163.783 32.7339C163.895 32.9211 164.007 33.0709 164.082 33.1458H160.337C160.262 33.0709 160.187 32.9586 160.075 32.7713C159.962 32.584 159.85 32.3968 159.775 32.1346C159.663 31.835 159.588 31.5728 159.55 31.2732C159.513 30.9735 159.476 30.6365 159.476 30.2619L160.262 30.7863C160.037 31.3106 159.663 31.7975 159.138 32.1721C158.614 32.5466 158.015 32.8462 157.303 33.0709C156.667 33.2582 155.918 33.3706 155.131 33.3706ZM156.142 30.5241C156.741 30.5241 157.303 30.4118 157.828 30.187C158.352 29.9623 158.764 29.6252 159.101 29.1758C159.438 28.7264 159.588 28.0897 159.588 27.3406V26.0297L160.524 26.9661C160 27.1533 159.363 27.3406 158.652 27.453C157.94 27.5653 157.228 27.6777 156.517 27.7526C155.693 27.8275 155.056 27.9773 154.644 28.1646C154.232 28.3518 154.007 28.6889 154.007 29.1758C154.007 29.6252 154.195 29.9623 154.532 30.187C154.906 30.4118 155.431 30.5241 156.142 30.5241Z" fill="white"/>
<path d="M169.064 17.9024C168.465 17.9024 167.978 17.7526 167.529 17.453C167.079 17.1534 166.854 16.7039 166.854 16.1421C166.854 15.5803 167.079 15.1309 167.529 14.8313C167.978 14.5316 168.465 14.3818 169.064 14.3818C169.663 14.3818 170.188 14.5316 170.637 14.8313C171.087 15.1309 171.311 15.5803 171.311 16.1421C171.311 16.7039 171.087 17.1534 170.637 17.453C170.188 17.7526 169.663 17.9024 169.064 17.9024ZM167.192 33.1084V20.0373H170.974V33.071H167.192V33.1084Z" fill="white"/>
<path d="M178.802 13.895V33.1085H175.057V13.895H178.802Z" fill="white"/>
<path d="M26.1049 20.412L45.6929 40L52.2097 33.4457L32.6592 13.8577L40 6.51685L33.4457 0L0 33.4457L6.51685 40L26.1049 20.412Z" fill="#7F5AF0"/>
</g>
<defs>
<clipPath id="clip0_1191_514">
<rect width="178.801" height="40" fill="white"/>
</clipPath>
</defs>
</svg>
