<svg width="215" height="48" viewBox="0 0 215 48" fill="none" xmlns="http://www.w3.org/2000/svg">
<g clip-path="url(#clip0)">
<path d="M82.5618 40.0449C81.4382 40.0449 80.4045 39.8652 79.5056 39.5056C78.6067 39.1461 77.9326 38.6067 77.4382 37.9326C76.9438 37.2584 76.6742 36.4045 76.6742 35.4157C76.6742 34.2921 76.9888 33.3933 77.573 32.7191C78.2023 32 79.0112 31.5056 80 31.1011C80.9888 30.7416 82.1124 30.4719 83.2809 30.382C84.9888 30.2023 86.2022 30.0674 86.8315 29.9326C87.5056 29.7978 87.8202 29.573 87.8202 29.2135C87.8202 29.2135 87.8202 29.2135 87.8202 29.1685C87.8202 28.5843 87.5506 28.1348 86.9663 27.7753C86.427 27.4607 85.618 27.2809 84.6292 27.2809C83.5955 27.2809 82.7865 27.4607 82.2022 27.8652C81.6629 28.2247 81.3483 28.809 81.3483 29.618H76.8539C76.8539 28.3596 77.2135 27.2809 77.8876 26.427C78.5618 25.573 79.5056 24.8989 80.6742 24.4494C81.8427 24 83.1461 23.7753 84.6292 23.7753C86.0225 23.7753 87.2809 24 88.4494 24.4045C89.618 24.809 90.5618 25.4382 91.2809 26.2921C92 27.1461 92.3596 28.1798 92.3596 29.4831C92.3596 29.7079 92.3596 29.8876 92.3596 30.1124C92.3596 30.2921 92.3596 30.5169 92.3596 30.7416V36.2697C92.3596 36.6742 92.3596 37.0787 92.4045 37.4382C92.4494 37.7978 92.4944 38.1573 92.5843 38.427C92.6742 38.7865 92.809 39.0562 92.9438 39.2809C93.0787 39.5056 93.2135 39.6854 93.3034 39.7753H88.809C88.7191 39.6854 88.6292 39.5506 88.4944 39.3258C88.3596 39.1011 88.2247 38.8764 88.1348 38.5618C88 38.2023 87.9101 37.8876 87.8652 37.5281C87.8202 37.1685 87.7753 36.7641 87.7753 36.3146L88.7191 36.9438C88.4494 37.573 88 38.1573 87.3708 38.6067C86.7416 39.0562 86.0225 39.4157 85.1685 39.6854C84.4494 39.9101 83.5506 40.0449 82.5618 40.0449ZM83.7753 36.6292C84.4944 36.6292 85.1685 36.4944 85.7978 36.2247C86.427 35.9551 86.9214 35.5506 87.3258 35.0112C87.7303 34.4719 87.9101 33.7079 87.9101 32.809V31.236L89.0337 32.3596C88.4045 32.5843 87.6405 32.809 86.7865 32.9438C85.9326 33.0787 85.0787 33.2135 84.2247 33.3034C83.236 33.3933 82.4719 33.573 81.9775 33.7978C81.4831 34.0225 81.2135 34.427 81.2135 35.0112C81.2135 35.5506 81.4382 35.9551 81.8427 36.2247C82.3371 36.4944 82.9663 36.6292 83.7753 36.6292Z" fill="#041147"/>
<path d="M102.517 40C101.393 40 100.494 39.8202 99.7753 39.4607C99.0562 39.1011 98.4719 38.6067 98.0674 38.0225C97.6629 37.3933 97.3483 36.7191 97.2135 36C97.0337 35.236 96.9438 34.5169 96.9438 33.7079C96.9438 33.3483 96.9438 32.9888 96.9438 32.5843C96.9438 32.1798 96.9438 31.7753 96.9438 31.3708V24.0449H101.528V30.6517C101.528 30.9663 101.528 31.3258 101.528 31.6405C101.528 31.9551 101.528 32.2247 101.528 32.4944C101.528 33.1685 101.618 33.7528 101.753 34.2921C101.888 34.8315 102.157 35.2809 102.562 35.6405C102.966 35.9551 103.551 36.1348 104.27 36.1348C104.989 36.1348 105.618 35.9101 106.112 35.5056C106.607 35.1011 107.011 34.5618 107.281 33.9326C107.551 33.3034 107.685 32.6292 107.685 31.9551L108.989 32.9888C108.989 33.9775 108.854 34.8764 108.539 35.7303C108.225 36.5843 107.82 37.3034 107.281 37.9326C106.742 38.5618 106.067 39.0562 105.258 39.4157C104.404 39.8202 103.506 40 102.517 40ZM107.64 39.7303V24.0449H112.225V39.6854H107.64V39.7303Z" fill="#041147"/>
<path d="M124.539 40.0449C123.955 40.0449 123.326 40 122.697 39.9101C122.067 39.8202 121.483 39.5955 120.944 39.2809C120.404 38.9663 119.955 38.5169 119.64 37.9326C119.326 37.3483 119.146 36.5393 119.146 35.5506C119.146 35.3258 119.146 35.1011 119.146 34.8764C119.146 34.6517 119.146 34.427 119.146 34.2022V27.5955H115.551V24.0449H116.584C117.169 24.0449 117.663 24 117.978 23.9551C118.292 23.9101 118.607 23.7753 118.742 23.5955C118.921 23.4157 119.011 23.0562 119.056 22.6517C119.101 22.2022 119.146 21.618 119.146 20.8539V18.8764H123.73V24.0449H128.27V27.5955H123.73V33.2135C123.73 33.3933 123.73 33.573 123.73 33.7079C123.73 33.8876 123.73 34.0225 123.73 34.2022C123.73 34.8764 123.82 35.4157 123.955 35.8652C124.135 36.2697 124.539 36.4944 125.169 36.4944C125.483 36.4944 125.798 36.4494 126.112 36.4045C126.382 36.3596 126.607 36.2697 126.787 36.2247V39.6404C126.562 39.7303 126.292 39.8202 125.933 39.8652C125.483 40 125.034 40.0449 124.539 40.0449Z" fill="#041147"/>
<path d="M132.09 39.7303V16.6742H136.674V39.7303H132.09ZM143.146 39.7303V34.1573C143.146 33.9775 143.146 33.7079 143.146 33.3483C143.146 32.9888 143.146 32.6742 143.146 32.3146C143.146 31.9551 143.146 31.6854 143.146 31.4607C143.146 30.2472 142.921 29.3483 142.517 28.6742C142.067 28 141.303 27.6854 140.135 27.6854C139.371 27.6854 138.742 27.8202 138.247 28.1348C137.753 28.4494 137.348 28.8539 137.079 29.3933C136.809 29.9326 136.674 30.5618 136.674 31.2809L135.326 30.382C135.326 29.0786 135.595 27.9101 136.18 26.9213C136.719 25.9326 137.528 25.1685 138.517 24.5843C139.506 24.0449 140.629 23.7303 141.933 23.7303C143.865 23.7303 145.303 24.3146 146.247 25.4382C147.191 26.5618 147.685 28.1348 147.685 30.1573C147.685 30.6517 147.685 31.2809 147.685 32C147.685 32.7191 147.685 33.5281 147.685 34.4719V39.6854H143.146V39.7303Z" fill="#041147"/>
<path d="M159.82 40.0449C159.236 40.0449 158.607 40 157.978 39.9101C157.348 39.8202 156.764 39.5955 156.225 39.2809C155.685 38.9663 155.236 38.5169 154.921 37.9326C154.607 37.3483 154.427 36.5393 154.427 35.5506C154.427 35.3258 154.427 35.1011 154.427 34.8764C154.427 34.6517 154.427 34.427 154.427 34.2022V27.5955H150.831V24.0449H151.865C152.449 24.0449 152.944 24 153.258 23.9551C153.573 23.9101 153.888 23.7753 154.022 23.5955C154.202 23.4157 154.292 23.0562 154.337 22.6517C154.382 22.2022 154.427 21.618 154.427 20.8539V18.8764H159.011V24.0449H163.551V27.5955H159.011V33.2135C159.011 33.3933 159.011 33.573 159.011 33.7079C159.011 33.8876 159.011 34.0225 159.011 34.2022C159.011 34.8764 159.101 35.4157 159.236 35.8652C159.416 36.2697 159.82 36.4944 160.449 36.4944C160.764 36.4944 161.079 36.4494 161.393 36.4045C161.663 36.3596 161.888 36.2697 162.067 36.2247V39.6404C161.843 39.7303 161.573 39.8202 161.213 39.8652C160.764 40 160.36 40.0449 159.82 40.0449Z" fill="#041147"/>
<path d="M167.416 39.7303V24.0449H172V29.4382L171.056 28.8539C171.146 28.1348 171.371 27.4157 171.64 26.8315C171.91 26.2022 172.315 25.6629 172.764 25.2135C173.213 24.764 173.753 24.4045 174.382 24.1348C175.011 23.8652 175.73 23.7303 176.539 23.7303C177.169 23.7303 177.663 23.7753 178.022 23.8652C178.382 23.9551 178.607 24.0449 178.697 24.0899L177.933 28.1798C177.843 28.1348 177.663 28.0449 177.348 27.9551C177.034 27.8652 176.629 27.7753 176.18 27.7753C175.371 27.7753 174.742 27.9101 174.202 28.1798C173.663 28.4494 173.258 28.809 172.944 29.2135C172.629 29.6629 172.404 30.1124 172.27 30.6517C172.135 31.191 172.045 31.7303 172.045 32.2697V39.6404H167.416V39.7303Z" fill="#041147"/>
<path d="M186.157 40.0449C185.034 40.0449 184 39.8652 183.101 39.5056C182.202 39.1461 181.528 38.6067 181.034 37.9326C180.539 37.2584 180.27 36.4045 180.27 35.4157C180.27 34.2921 180.584 33.3933 181.169 32.7191C181.798 32 182.607 31.5056 183.595 31.1011C184.584 30.7416 185.708 30.4719 186.876 30.382C188.584 30.2023 189.798 30.0674 190.427 29.9326C191.101 29.7978 191.416 29.573 191.416 29.2135C191.416 29.2135 191.416 29.2135 191.416 29.1685C191.416 28.5843 191.146 28.1348 190.562 27.7753C190.022 27.4607 189.213 27.2809 188.225 27.2809C187.191 27.2809 186.382 27.4607 185.798 27.8652C185.258 28.2247 184.944 28.809 184.944 29.618H180.449C180.449 28.3596 180.809 27.2809 181.483 26.427C182.157 25.573 183.101 24.8989 184.27 24.4494C185.438 24 186.742 23.7753 188.225 23.7753C189.618 23.7753 190.876 24 192.045 24.4045C193.213 24.809 194.157 25.4382 194.876 26.2921C195.595 27.1461 195.955 28.1798 195.955 29.4831C195.955 29.7079 195.955 29.8876 195.955 30.1124C195.955 30.2921 195.955 30.5169 195.955 30.7416V36.2697C195.955 36.6742 195.955 37.0787 196 37.4382C196.045 37.7978 196.09 38.1573 196.18 38.427C196.27 38.7865 196.404 39.0562 196.539 39.2809C196.674 39.5056 196.809 39.6854 196.899 39.7753H192.404C192.315 39.6854 192.225 39.5506 192.09 39.3258C191.955 39.1011 191.82 38.8764 191.73 38.5618C191.595 38.2023 191.506 37.8876 191.461 37.5281C191.416 37.1685 191.371 36.7641 191.371 36.3146L192.315 36.9438C192.045 37.573 191.595 38.1573 190.966 38.6067C190.337 39.0562 189.618 39.4157 188.764 39.6854C188 39.9101 187.101 40.0449 186.157 40.0449ZM187.371 36.6292C188.09 36.6292 188.764 36.4944 189.393 36.2247C190.022 35.9551 190.517 35.5506 190.921 35.0112C191.326 34.4719 191.506 33.7079 191.506 32.809V31.236L192.629 32.3596C192 32.5843 191.236 32.809 190.382 32.9438C189.528 33.0787 188.674 33.2135 187.82 33.3034C186.831 33.3933 186.067 33.573 185.573 33.7978C185.079 34.0225 184.809 34.427 184.809 35.0112C184.809 35.5506 185.034 35.9551 185.438 36.2247C185.888 36.4944 186.517 36.6292 187.371 36.6292Z" fill="#041147"/>
<path d="M202.876 21.4831C202.157 21.4831 201.573 21.3034 201.034 20.9438C200.494 20.5843 200.225 20.0449 200.225 19.3708C200.225 18.6966 200.494 18.1573 201.034 17.7977C201.573 17.4382 202.157 17.2584 202.876 17.2584C203.595 17.2584 204.225 17.4382 204.764 17.7977C205.303 18.1573 205.573 18.6966 205.573 19.3708C205.573 20.0449 205.303 20.5843 204.764 20.9438C204.225 21.3034 203.595 21.4831 202.876 21.4831ZM200.629 39.7303V24.0449H205.169V39.6854H200.629V39.7303Z" fill="#041147"/>
<path d="M214.562 16.6742V39.7303H210.067V16.6742H214.562Z" fill="#041147"/>
<path d="M31.3258 24.4944L54.8315 48L62.6517 40.1348L39.191 16.6292L48 7.82022L40.1348 0L0 40.1348L7.82022 48L31.3258 24.4944Z" fill="url(#paint0_linear)"/>
</g>
<defs>
<linearGradient id="paint0_linear" x1="0" y1="23.9921" x2="62.6732" y2="23.9921" gradientUnits="userSpaceOnUse">
<stop stop-color="#4600BF"/>
<stop offset="1" stop-color="#FF00D4"/>
</linearGradient>
<clipPath id="clip0">
<rect width="214.562" height="48" fill="white"/>
</clipPath>
</defs>
</svg>
