<?xml version="1.0" encoding="utf-8"?>
<!-- Generator: Adobe Illustrator 24.1.3, SVG Export Plug-In . SVG Version: 6.00 Build 0)  -->
<svg version="1.1" id="Layer_1" xmlns="http://www.w3.org/2000/svg" xmlns:xlink="http://www.w3.org/1999/xlink" x="0px" y="0px"
	 viewBox="0 0 569.1 130" style="enable-background:new 0 0 569.1 130;" xml:space="preserve">
<style type="text/css">
	.st0{fill:#161618;}
</style>
<path class="st0" d="M189.3,103.8c-4.3-4.7-6.5-10.6-6.5-17.8c0-7.2,2.1-13.2,6.4-17.8c4.3-4.6,9.7-6.9,16.3-6.9s11.6,2.7,15.1,8.2
	V62h12.2v48.1h-12.2V102c-3.6,5.8-8.7,8.8-15.2,8.8C199,110.8,193.6,108.5,189.3,103.8 M216.8,96.5c2.5-2.5,3.8-6,3.8-10.4
	s-1.3-7.9-3.8-10.4s-5.5-3.8-8.9-3.8s-6.4,1.2-8.9,3.7s-3.8,5.9-3.8,10.3s1.3,7.9,3.8,10.4s5.5,3.8,8.9,3.8
	C211.3,100.2,214.3,99,216.8,96.5"/>
<path class="st0" d="M279,62h12.2v48.1H279v-7.3c-3.1,5.3-8.1,7.9-15,7.9c-5.4,0-9.9-1.8-13.4-5.4s-5.2-8.6-5.2-15.1V62h12.2v26.5
	c0,3.8,1,6.7,2.9,8.7s4.5,3,7.8,3s5.9-1,7.9-3c1.9-2,2.9-4.9,2.9-8.7L279,62L279,62z"/>
<path class="st0" d="M322.9,99.9h5.8v10.2H321c-4.9,0-8.7-1.1-11.4-3.4c-2.7-2.3-4-6-4-11.2V72h-5.1V62h5.1V50.1h12.2V62h10.8v10
	h-10.8v23.5c0,1.6,0.4,2.7,1.1,3.3C319.8,99.6,321.1,99.9,322.9,99.9"/>
<path class="st0" d="M350.6,45.9v23.4c3.1-5.3,8-7.9,14.9-7.9c5.5,0,10,1.8,13.5,5.4c3.5,3.6,5.2,8.6,5.2,15.1v28.3H372V83.6
	c0-3.8-1-6.6-2.9-8.6s-4.5-3-7.8-3s-5.9,1-7.9,3c-1.9,2-2.9,4.9-2.9,8.6v26.6h-12.2V45.9H350.6z"/>
<path class="st0" d="M415.4,99.9h5.8v10.2h-7.7c-4.9,0-8.7-1.1-11.4-3.4c-2.7-2.3-4-6-4-11.2V72H393V62h5.1V50.1h12.2V62h10.8v10
	h-10.8v23.5c0,1.6,0.4,2.7,1.1,3.3C412.3,99.6,413.6,99.9,415.4,99.9"/>
<path class="st0" d="M443,62v8.5c3.2-6.1,7.9-9.2,14.1-9.2v12.5h-3c-3.6,0-6.4,0.9-8.2,2.7c-1.9,1.8-2.8,5-2.8,9.4V110h-12.2V62H443
	z"/>
<path class="st0" d="M468.9,103.8c-4.3-4.7-6.5-10.6-6.5-17.8c0-7.2,2.1-13.2,6.4-17.8c4.3-4.6,9.7-6.9,16.3-6.9
	c6.6,0,11.6,2.7,15.1,8.2V62h12.2v48.1h-12.2V102c-3.6,5.8-8.7,8.8-15.2,8.8C478.6,110.8,473.2,108.5,468.9,103.8 M496.4,96.5
	c2.5-2.5,3.8-6,3.8-10.4s-1.3-7.9-3.8-10.4s-5.5-3.8-8.9-3.8s-6.4,1.2-8.9,3.7s-3.8,5.9-3.8,10.3s1.3,7.9,3.8,10.4s5.5,3.8,8.9,3.8
	C490.9,100.2,493.9,99,496.4,96.5"/>
<path class="st0" d="M539,49.8c0,2.1-0.7,3.9-2.2,5.3c-1.4,1.4-3.2,2.2-5.3,2.2s-3.8-0.7-5.3-2.2c-1.4-1.4-2.2-3.2-2.2-5.3
	s0.7-3.8,2.2-5.3c1.4-1.4,3.2-2.2,5.3-2.2s3.8,0.7,5.3,2.2C538.2,45.9,539,47.7,539,49.8 M525.4,62h12.2v48.1h-12.2V62z"/>
<rect x="550.7" y="45.9" class="st0" width="12.2" height="64.3"/>
<g>
	<g>
		<path id="SVGID_1_" class="st0" d="M1.5,92.9h27V79h-27V92.9z M77.7,79v20.9h14v-7h38.7V79H77.7z M141.4,92.9h27V79h-27V92.9z
			 M85.9,2.2L85.9,2.2c-15.8,0-28.8,13-28.8,28.9v13H39.6v83.7h90.7V99.9h-14v14H53.6V58h62.8v14h14V44.1H71v-13
			c0-8.4,6.6-15,14.9-15c8.2,0,14.8,6.6,14.8,15h14C114.7,15.3,101.8,2.2,85.9,2.2L85.9,2.2z"/>
	</g>
</g>
</svg>
