<?xml version="1.0" encoding="utf-8"?>
<!-- Generator: Adobe Illustrator 24.0.3, SVG Export Plug-In . SVG Version: 6.00 Build 0)  -->
<svg version="1.1" id="Layer_1" xmlns="http://www.w3.org/2000/svg" xmlns:xlink="http://www.w3.org/1999/xlink" x="0px" y="0px"
	 viewBox="0 0 600 234" style="enable-background:new 0 0 600 234;" xml:space="preserve">
<style type="text/css">
	.st0{fill:#000000;}
	.st1{fill-rule:evenodd;clip-rule:evenodd;fill:#000000;}
</style>
<g id="verified">
	<g>
		<path class="st0" d="M341.3,100.8h10.2l9.7,29.5l9.7-29.5h10.2l-13.9,37.8h-12.1L341.3,100.8z"/>
		<path class="st0" d="M402.7,139.2c-5.5,0-10-1.8-13.4-5.4c-3.5-3.6-5.2-8.3-5.2-14.2c0-5.9,1.7-10.6,5.2-14.1s8-5.3,13.5-5.3
			s10.1,1.7,13.6,5.2c3.5,3.4,5.3,8,5.3,13.8c0,1.3-0.1,2.5-0.3,3.7h-27.5c0.2,2.5,1.1,4.4,2.7,5.9s3.6,2.3,6.1,2.3
			c3.3,0,5.8-1.4,7.4-4.1h10.4c-1.1,3.6-3.2,6.5-6.3,8.8C410.9,138.1,407.1,139.2,402.7,139.2z M409,110.7c-1.7-1.5-3.8-2.3-6.2-2.3
			c-2.4,0-4.4,0.8-6,2.3s-2.6,3.5-2.9,6h17.9C411.6,114.2,410.7,112.2,409,110.7z"/>
		<path class="st0" d="M438.9,100.8v6.7c2.5-4.8,6.2-7.2,11-7.2v9.8h-2.4c-2.9,0-5,0.7-6.5,2.1s-2.2,3.9-2.2,7.4v19h-9.6v-37.8
			H438.9z"/>
		<path class="st0" d="M467.4,91.2c0,1.6-0.6,3-1.7,4.2c-1.1,1.1-2.5,1.7-4.1,1.7s-3-0.6-4.1-1.7s-1.7-2.5-1.7-4.2
			c0-1.6,0.6-3,1.7-4.2c1.1-1.1,2.5-1.7,4.1-1.7s3,0.6,4.1,1.7C466.8,88.2,467.4,89.6,467.4,91.2z M456.7,138.6v-37.8h9.6v37.8
			H456.7z"/>
		<path class="st0" d="M486.7,98.7v2.1h22.2v37.8h-9.5v-30h-12.6v30h-9.5v-30h-4.1v-7.8h4.1v-2.1c0-4.5,1.2-7.9,3.6-10
			s6.2-3.1,11.4-3.1v8.1c-2,0-3.4,0.4-4.2,1.2C487.1,95.6,486.7,96.9,486.7,98.7z M508.2,95.4c-1.1,1.1-2.5,1.7-4.1,1.7
			s-3-0.6-4.1-1.7s-1.7-2.5-1.7-4.2c0-1.6,0.6-3,1.7-4.2c1.1-1.1,2.5-1.7,4.1-1.7s3,0.6,4.1,1.7s1.7,2.5,1.7,4.2
			C509.9,92.9,509.3,94.2,508.2,95.4z"/>
		<path class="st0" d="M535.1,139.2c-5.5,0-10-1.8-13.4-5.4c-3.5-3.6-5.2-8.3-5.2-14.2c0-5.9,1.7-10.6,5.2-14.1s8-5.3,13.5-5.3
			s10.1,1.7,13.6,5.2c3.5,3.4,5.3,8,5.3,13.8c0,1.3-0.1,2.5-0.3,3.7h-27.5c0.2,2.5,1.1,4.4,2.7,5.9c1.6,1.5,3.6,2.3,6.1,2.3
			c3.3,0,5.8-1.4,7.4-4.1h10.4c-1.1,3.6-3.2,6.5-6.3,8.8C543.3,138.1,539.5,139.2,535.1,139.2z M541.4,110.7
			c-1.7-1.5-3.8-2.3-6.2-2.3s-4.4,0.8-6,2.3s-2.6,3.5-2.9,6h17.9C544,114.2,543.1,112.2,541.4,110.7z"/>
		<path class="st0" d="M564.1,133.7c-3.4-3.7-5.1-8.3-5.1-14s1.7-10.3,5-14c3.4-3.6,7.6-5.4,12.8-5.4s9.1,2.1,11.9,6.4V88.1h9.5
			v50.5h-9.5v-6.3c-2.9,4.6-6.8,6.9-11.9,6.9C571.7,139.2,567.4,137.4,564.1,133.7z M585.7,127.9c2-2,3-4.7,3-8.2s-1-6.2-3-8.2
			s-4.3-3-7-3s-5,1-7,2.9c-2,2-3,4.7-3,8.1c0,3.5,1,6.2,3,8.2c2,2,4.3,3,7,3S583.7,129.9,585.7,127.9z"/>
	</g>
</g>
<g id="by_authtrail">
	<g>
		<path class="st0" d="M367,173c3.1,0,5.6,1,7.6,3.1s3,4.8,3,8.1s-1,6.1-3,8.3s-4.5,3.3-7.6,3.3c-2,0-3.7-0.5-5.2-1.5
			s-2.6-2.2-3.3-3.8v4.8h-2.8v-29.8h2.8v12.6c0.7-1.5,1.8-2.8,3.3-3.7S365,173,367,173z M366.6,193.4c2.3,0,4.2-0.9,5.8-2.6
			c1.6-1.7,2.4-3.9,2.4-6.6c0-2.7-0.8-4.8-2.4-6.4c-1.6-1.6-3.5-2.4-5.8-2.4s-4.2,0.8-5.8,2.5c-1.6,1.7-2.4,3.8-2.4,6.5
			s0.8,4.8,2.4,6.5S364.3,193.4,366.6,193.4z"/>
		<path class="st0" d="M388.9,195.1l-8.7-21.7h3l7.2,18.7l7.2-18.7h2.9l-13,32.2h-2.9L388.9,195.1z"/>
		<path class="st0" d="M418.4,192.5c-2-2.2-3-4.9-3-8.3c0-3.4,1-6.1,3-8.2c2-2.1,4.5-3.2,7.6-3.2s5.4,1.3,7,3.8v-3.5h5.6v22.3H433
			v-3.7c-1.7,2.7-4,4.1-7,4.1S420.4,194.6,418.4,192.5z M431.2,189c1.2-1.2,1.8-2.8,1.8-4.8s-0.6-3.6-1.8-4.8
			c-1.2-1.2-2.6-1.8-4.1-1.8c-1.6,0-3,0.6-4.1,1.7c-1.2,1.2-1.7,2.8-1.7,4.8s0.6,3.6,1.8,4.8c1.2,1.2,2.6,1.8,4.1,1.8
			C428.7,190.8,430,190.2,431.2,189z"/>
		<path class="st0" d="M460.4,173.1h5.7v22.3h-5.7V192c-1.4,2.4-3.7,3.7-7,3.7c-2.5,0-4.6-0.8-6.2-2.5s-2.4-4-2.4-7v-13.1h5.6v12.3
			c0,1.7,0.4,3.1,1.3,4s2.1,1.4,3.6,1.4s2.7-0.5,3.6-1.4s1.3-2.3,1.3-4v-12.3L460.4,173.1L460.4,173.1z"/>
		<path class="st0" d="M481.1,190.6h2.7v4.7h-3.6c-2.3,0-4-0.5-5.3-1.6c-1.2-1-1.8-2.8-1.8-5.2v-10.9h-2.4V173h2.4v-5.5h5.7v5.5h5
			v4.6h-5v10.9c0,0.7,0.2,1.2,0.5,1.5C479.7,190.5,480.3,190.6,481.1,190.6z"/>
		<path class="st0" d="M494.3,165.6v10.8c1.4-2.4,3.7-3.7,6.9-3.7c2.5,0,4.6,0.8,6.2,2.5s2.4,4,2.4,7v13.1h-5.6V183
			c0-1.7-0.4-3.1-1.3-4s-2.1-1.4-3.6-1.4s-2.7,0.5-3.6,1.4s-1.3,2.3-1.3,4v12.3h-5.7v-29.8L494.3,165.6L494.3,165.6z"/>
		<path class="st0" d="M524.8,190.6h2.7v4.7h-3.6c-2.3,0-4-0.5-5.3-1.6c-1.2-1-1.8-2.8-1.8-5.2v-10.9h-2.4V173h2.4v-5.5h5.7v5.5h5
			v4.6h-5v10.9c0,0.7,0.2,1.2,0.5,1.5C523.3,190.5,523.9,190.6,524.8,190.6z"/>
		<path class="st0" d="M537.9,173.1v3.9c1.5-2.8,3.7-4.3,6.5-4.3v5.8H543c-1.7,0-3,0.4-3.8,1.3c-0.9,0.8-1.3,2.3-1.3,4.4v11.2h-5.7
			v-22.3L537.9,173.1L537.9,173.1z"/>
		<path class="st0" d="M550.3,192.5c-2-2.2-3-4.9-3-8.3c0-3.4,1-6.1,3-8.2c2-2.1,4.5-3.2,7.6-3.2s5.4,1.3,7,3.8v-3.5h5.6v22.3h-5.6
			v-3.7c-1.7,2.7-4,4.1-7,4.1S552.3,194.6,550.3,192.5z M563.1,189c1.2-1.2,1.8-2.8,1.8-4.8s-0.6-3.6-1.8-4.8s-2.6-1.8-4.1-1.8
			c-1.6,0-3,0.6-4.1,1.7c-1.2,1.2-1.7,2.8-1.7,4.8s0.6,3.6,1.8,4.8s2.6,1.8,4.1,1.8C560.5,190.8,561.9,190.2,563.1,189z"/>
		<path class="st0" d="M583.2,167.4c0,1-0.3,1.8-1,2.5s-1.5,1-2.4,1s-1.8-0.3-2.4-1c-0.7-0.7-1-1.5-1-2.5s0.3-1.8,1-2.5s1.5-1,2.4-1
			s1.8,0.3,2.4,1C582.8,165.6,583.2,166.4,583.2,167.4z M576.9,195.4v-22.3h5.7v22.3H576.9z"/>
		<path class="st0" d="M589,195.4v-29.8h5.7v29.8H589z"/>
	</g>
</g>
<g id="Vector_Smart_Object_copy_5_xA0_Image_1_">
	<g>
		<g>
			<path class="st1" d="M129.4,56.1c0-15.3,12.1-27.3,27.1-27.3s27,12.1,27,27.4H209c0-28.9-23.5-52.9-52.4-52.9v0.1l0,0
				c-28.9,0-52.5,23.7-52.6,52.7v23.6H72.1v152.7h165.5v-50.9h-25.5V207H97.6V105.2h114.5v25.5h25.5v-51H129.4V56.1z M141.5,181.6
				H167v-12.7h70.7v-25.5h-96.1v38.2H141.5z M257.8,143.4c0,12.7,0,12.7,0,25.5h49.3v-25.5H257.8z M2.6,168.8h49.3v-25.5H2.6
				C2.6,156.1,2.6,156.1,2.6,168.8z"/>
		</g>
	</g>
</g>
</svg>
